# xmcd CD database file
#
# Track frame offsets:
#	150
#	13306
#	29387
#	49139
#	62125
#	78027
#	90859
#	105796
#	118289
#	140072
#	154027
#	165836
#	177926
#	190395
#	202078
#	215169
#	228098
#
# Disc length: 3261 seconds
#
# Revision: 0
# Processed by: cddbd v1.5.1PL2 Copyright (c) Steve Scherf et al.
# Submitted via: CDex 1.51
#
DISCID=df0cbb11
DTITLE=Premiere Best Blues 2006 - Vol. 1
DYEAR=2006
DGENRE=Blues
TTITLE0=Blues Before Sunrise - Eric Clapton
TTITLE1=Money On My Mind - Corey Harris
TTITLE2=Loose Lips - Trudy Lynn
TTITLE3=Ronnie Johnny - Ronnie Earl
TTITLE4=Sweet Sixteen - B.B. King
TTITLE5=Football Widow - Zora Young
TTITLE6=How Strong Is A Woman - Etta James
TTITLE7=In Care Of The Blues - Toni Price
TTITLE8=Two Trains Comin' - James Cotton
TTITLE9=Party At My House - Eddy Clearwater
TTITLE10=It's To Late Brother - Little Walter
TTITLE11=Lonesome Home - Lightning' Hopkins
TTITLE12=Back Door Man - Howlin' Wolf
TTITLE13=Love Me Baby - John Lee Hooker
TTITLE14=I Sit Up All Night Long - St. Louis Jimmy Oden
TTITLE15=All Your Love - Otis Rush
TTITLE16=In The Wee Small Hours - Junior Wells
EXTD=YEAR: 2006
EXTT0=
EXTT1=
EXTT2=
EXTT3=
EXTT4=
EXTT5=
EXTT6=
EXTT7=
EXTT8=
EXTT9=
EXTT10=
EXTT11=
EXTT12=
EXTT13=
EXTT14=
EXTT15=
EXTT16=
PLAYORDER=
